<svg xmlns="http://www.w3.org/2000/svg" xmlns:xlink="http://www.w3.org/1999/xlink" viewBox="0 0 500 500"><defs><clipPath id="freepik--clip-path--inject-1"><path d="M211.79,202.67l-6.07,1.68-10.31-3.15-9.53,2.63,1.54,5.57-15.35,4.23c-46.42-19-81.14-13.47-81.14-13.47l43.15-31C148.74,168.69,196.16,171.89,211.79,202.67Z" style="fill:none"></path></clipPath></defs><g id="freepik--background-simple--inject-1"><path d="M317.9,70c28.27-1.24,53.18,16.44,63.45,42.45,12.66,32.07-3.64,65.13-2.27,98,.74,17.66,6.69,34,15.55,49.18,8.72,15,20.06,28.59,26.64,44.79,15.79,38.9-9.69,65-44.21,79.05-32.38,13.18-69,10.14-101.37-1.46-30-10.72-57.06-30.1-89.35-33.72-33.5-3.75-75.94,15.15-99.81-17.42-16.8-22.94-17.91-57.46,3.55-77.89,13.49-12.86,32-17.52,49.87-20.66,20.47-3.6,42.1-5.52,60.94-15,24.24-12.2,32.3-38.88,39-63.22,8-29.24,23.26-61.76,51.15-76.75A62.62,62.62,0,0,1,317.9,70Z" style="fill:#407BFF"></path><path d="M317.9,70c28.27-1.24,53.18,16.44,63.45,42.45,12.66,32.07-3.64,65.13-2.27,98,.74,17.66,6.69,34,15.55,49.18,8.72,15,20.06,28.59,26.64,44.79,15.79,38.9-9.69,65-44.21,79.05-32.38,13.18-69,10.14-101.37-1.46-30-10.72-57.06-30.1-89.35-33.72-33.5-3.75-75.94,15.15-99.81-17.42-16.8-22.94-17.91-57.46,3.55-77.89,13.49-12.86,32-17.52,49.87-20.66,20.47-3.6,42.1-5.52,60.94-15,24.24-12.2,32.3-38.88,39-63.22,8-29.24,23.26-61.76,51.15-76.75A62.62,62.62,0,0,1,317.9,70Z" style="fill:#fff;opacity:0.9"></path></g><g id="freepik--Shadow--inject-1"><ellipse id="freepik--path--inject-1" cx="250" cy="416.24" rx="193.89" ry="11.32" style="fill:#f5f5f5"></ellipse></g><g id="freepik--Toys--inject-1"><rect x="132.55" y="398.89" width="3.12" height="2.1" transform="translate(222.23 -12.58) rotate(30.6)" style="fill:#407BFF"></rect><rect x="140.89" y="403.82" width="3.12" height="2.1" transform="matrix(0.86, 0.51, -0.51, 0.86, 225.9, -16.14)" style="fill:#407BFF"></rect><rect x="132.55" y="398.89" width="3.12" height="2.1" transform="translate(222.23 -12.58) rotate(30.6)" style="opacity:0.2;isolation:isolate"></rect><rect x="140.89" y="403.82" width="3.12" height="2.1" transform="matrix(0.86, 0.51, -0.51, 0.86, 225.9, -16.14)" style="opacity:0.2;isolation:isolate"></rect><rect x="132.55" y="398.89" width="3.12" height="2.1" transform="translate(222.23 -12.58) rotate(30.6)" style="fill:#fff;opacity:0.2;isolation:isolate"></rect><rect x="140.89" y="403.82" width="3.12" height="2.1" transform="matrix(0.86, 0.51, -0.51, 0.86, 225.9, -16.14)" style="fill:#fff;opacity:0.2;isolation:isolate"></rect><rect x="124.88" y="402.31" width="22.9" height="8.76" transform="translate(225.97 -12.77) rotate(30.6)" style="fill:#407BFF"></rect><rect x="140.29" y="406.53" width="6.33" height="8.76" transform="translate(229.11 -15.81) rotate(30.6)" style="opacity:0.2;isolation:isolate"></rect><rect x="124.88" y="402.31" width="22.9" height="8.76" transform="translate(225.97 -12.77) rotate(30.6)" style="fill:#fff;opacity:0.2;isolation:isolate"></rect><rect x="92.53" y="406.18" width="3.12" height="2.1" style="fill:#407BFF"></rect><rect x="102.22" y="406.18" width="3.12" height="2.1" style="fill:#407BFF"></rect><rect x="92.53" y="406.18" width="3.12" height="2.1" style="opacity:0.2;isolation:isolate"></rect><rect x="102.22" y="406.18" width="3.12" height="2.1" style="opacity:0.2;isolation:isolate"></rect><rect x="87.99" y="407.53" width="22.9" height="8.76" style="fill:#407BFF"></rect><rect x="104.56" y="407.53" width="6.33" height="8.76" style="opacity:0.2;isolation:isolate"></rect><rect x="118.44" y="406.18" width="3.12" height="2.1" style="fill:#407BFF"></rect><rect x="128.13" y="406.18" width="3.12" height="2.1" style="fill:#407BFF"></rect><rect x="118.44" y="406.18" width="3.12" height="2.1" style="opacity:0.2;isolation:isolate"></rect><rect x="128.13" y="406.18" width="3.12" height="2.1" style="opacity:0.2;isolation:isolate"></rect><rect x="113.9" y="407.53" width="22.9" height="8.76" style="fill:#407BFF"></rect><rect x="130.47" y="407.53" width="6.33" height="8.76" style="opacity:0.2;isolation:isolate"></rect><rect x="95.31" y="396.86" width="3.13" height="2.1" style="fill:#407BFF"></rect><rect x="105" y="396.86" width="3.13" height="2.1" style="fill:#407BFF"></rect><rect x="95.31" y="396.86" width="3.13" height="2.1" style="fill:#fff;opacity:0.2;isolation:isolate"></rect><rect x="105" y="396.86" width="3.13" height="2.1" style="fill:#fff;opacity:0.2;isolation:isolate"></rect><rect x="90.77" y="398.21" width="22.9" height="8.76" style="fill:#407BFF"></rect><rect x="107.34" y="398.21" width="6.33" height="8.76" style="fill:#fff;opacity:0.2;isolation:isolate"></rect><rect x="102.98" y="409.14" width="3.12" height="2.1" style="fill:#263238"></rect><rect x="112.67" y="409.14" width="3.12" height="2.1" style="fill:#263238"></rect><rect x="102.98" y="409.14" width="3.12" height="2.1" style="fill:#fff;opacity:0.1;isolation:isolate"></rect><rect x="112.67" y="409.14" width="3.12" height="2.1" style="fill:#fff;opacity:0.1;isolation:isolate"></rect><rect x="98.43" y="410.5" width="22.9" height="8.76" style="fill:#263238"></rect><rect x="115" y="410.5" width="6.33" height="8.76" style="fill:#fff;opacity:0.1;isolation:isolate"></rect><rect x="92.53" y="387.31" width="3.12" height="2.1" style="fill:#263238"></rect><rect x="102.22" y="387.31" width="3.12" height="2.1" style="fill:#263238"></rect><rect x="92.53" y="387.31" width="3.12" height="2.1" style="fill:#fff;opacity:0.1;isolation:isolate"></rect><rect x="102.22" y="387.31" width="3.12" height="2.1" style="fill:#fff;opacity:0.1;isolation:isolate"></rect><rect x="87.99" y="388.66" width="22.9" height="8.76" style="fill:#263238"></rect><rect x="104.56" y="388.66" width="6.33" height="8.76" style="fill:#fff;opacity:0.1;isolation:isolate"></rect><rect x="92.56" y="377.54" width="3.12" height="2.1" transform="translate(2.52 -0.62) rotate(0.38)" style="fill:#407BFF"></rect><rect x="102.25" y="377.6" width="3.12" height="2.1" transform="translate(2.51 -0.68) rotate(0.38)" style="fill:#407BFF"></rect><rect x="92.56" y="377.54" width="3.12" height="2.1" transform="translate(2.52 -0.62) rotate(0.38)" style="opacity:0.2;isolation:isolate"></rect><rect x="102.25" y="377.6" width="3.12" height="2.1" transform="translate(2.51 -0.68) rotate(0.38)" style="opacity:0.2;isolation:isolate"></rect><rect x="92.56" y="377.54" width="3.12" height="2.1" transform="translate(2.52 -0.62) rotate(0.38)" style="fill:#fff;opacity:0.2;isolation:isolate"></rect><rect x="102.25" y="377.6" width="3.12" height="2.1" transform="translate(2.51 -0.68) rotate(0.38)" style="fill:#fff;opacity:0.2;isolation:isolate"></rect><rect x="87.99" y="378.93" width="22.9" height="8.76" transform="translate(2.55 -0.65) rotate(0.38)" style="fill:#407BFF"></rect><rect x="104.56" y="378.98" width="6.33" height="8.76" transform="matrix(1, 0.01, -0.01, 1, 2.55, -0.71)" style="opacity:0.2;isolation:isolate"></rect><rect x="87.99" y="378.93" width="22.9" height="8.76" transform="translate(2.55 -0.65) rotate(0.38)" style="fill:#fff;opacity:0.2;isolation:isolate"></rect></g><g id="freepik--Imagination--inject-1"><path d="M310.51,176.94c-.09.56-.19,1.11-.29,1.66a77.93,77.93,0,0,1-19.69,38.75,81.89,81.89,0,0,1-26.81,19.11c-.39.17-.78.35-1.18.51-9.11,4-18.49,7.37-27.25,12.1-20.08,10.81-38.14,30.28-58.57,42.94-13.68,8.48-28.42,13.91-45.53,11.65-29.38-3.89-51-25.24-64-50.67-15.68-30.73-19-71.89-3.9-103.6,25.9-54.34,90.22-91,150.25-81.29C237.7,72,260.14,84.25,278,100.25c14.35,12.83,26.66,28.88,31.38,47.84A70.85,70.85,0,0,1,310.51,176.94Z" style="fill:#407BFF"></path><path d="M310.51,176.94c-.09.56-.19,1.11-.29,1.66a77.93,77.93,0,0,1-19.69,38.75,81.89,81.89,0,0,1-26.81,19.11c-.39.17-.78.35-1.18.51-9.11,4-18.49,7.37-27.25,12.1-20.08,10.81-38.14,30.28-58.57,42.94-13.68,8.48-28.42,13.91-45.53,11.65-29.38-3.89-51-25.24-64-50.67-15.68-30.73-19-71.89-3.9-103.6,25.9-54.34,90.22-91,150.25-81.29C237.7,72,260.14,84.25,278,100.25c14.35,12.83,26.66,28.88,31.38,47.84A70.85,70.85,0,0,1,310.51,176.94Z" style="fill:#fff;opacity:0.7000000000000001"></path><path d="M290.53,217.35a81.89,81.89,0,0,1-26.81,19.11c-.39.17-.78.35-1.18.51-9.11,4-18.49,7.37-27.25,12.1-20.08,10.81-38.14,30.28-58.57,42.94,3.26-10.71,4.65-30.68-6.15-65.92-10.06-32.83-22.1-71.61-3.46-103.44q1.14-2,2.43-3.85c15.2-22.42,48.9-24.52,71.62-13.52,20.55,9.94,38.47,38.52,46.23,85.29Q289.46,203.08,290.53,217.35Z" style="fill:#263238"></path><circle cx="196.05" cy="153.42" r="13.53" style="fill:#407BFF"></circle><circle cx="190.51" cy="157.72" r="3.84" style="fill:#fff;opacity:0.6000000000000001;isolation:isolate"></circle><path d="M222.55,130.09a4,4,0,1,1-4-4A4,4,0,0,1,222.55,130.09Z" style="fill:#407BFF"></path><circle cx="216.92" cy="131.36" r="1.13" style="fill:#fff;opacity:0.6000000000000001;isolation:isolate"></circle><path d="M194.07,125.75a4,4,0,1,1-4-4A4,4,0,0,1,194.07,125.75Z" style="fill:#407BFF"></path><path d="M189.58,127a1.14,1.14,0,1,1-1.13-1.13A1.14,1.14,0,0,1,189.58,127Z" style="fill:#fff;opacity:0.6000000000000001;isolation:isolate"></path><path d="M175.25,146.34a4,4,0,1,1-4-4A4,4,0,0,1,175.25,146.34Z" style="fill:#407BFF"></path><circle cx="169.62" cy="147.61" r="1.13" style="fill:#fff;opacity:0.6000000000000001;isolation:isolate"></circle><path d="M228.07,157.72a4,4,0,1,1-4-4A4,4,0,0,1,228.07,157.72Z" style="fill:#407BFF"></path><circle cx="222.44" cy="158.99" r="1.13" style="fill:#fff;opacity:0.6000000000000001;isolation:isolate"></circle><path d="M206.59,178.84a4,4,0,1,1-4-4A4,4,0,0,1,206.59,178.84Z" style="fill:#407BFF"></path><circle cx="200.96" cy="180.11" r="1.13" style="fill:#fff;opacity:0.6000000000000001;isolation:isolate"></circle><path d="M179.24,172.71a4,4,0,1,1-4-4A4,4,0,0,1,179.24,172.71Z" style="fill:#407BFF"></path><circle cx="173.61" cy="173.98" r="1.13" style="fill:#fff;opacity:0.6000000000000001;isolation:isolate"></circle><path d="M179.54,194.18s-31.94,5.4-46-12.45c-10.77-13.69-8.83-39.3-41.62-52.94,0,0,17.27-4.21,30.59,9.55,19.24,19.88,10.72,47.22,56.5,40Z" style="fill:#263238"></path><path d="M270.18,176.65c-.1,1.65,15.68-.07,17-.18,8.22-.72,15.5-3.35,20.94-9.93,8.63-10.44,8.25-26.58.73-37.51-8.19-11.89-18.44-23.73-17.1-39.18C292.54,81,297,73,302.35,66.16c0,0-15.49,4.83-18.83,23.68-6,34.15,35.77,67.57-11.34,57C272.18,146.88,270.18,176.61,270.18,176.65Z" style="fill:#263238"></path><path d="M194.86,247.4s-64.11,21.16-82.36-12.28-6.79-86.15-43.44-89c0,0,15.43.24,19.13,45.64s7.51,120.81,108.75,83.47C196.94,275.23,210.51,266.46,194.86,247.4Z" style="fill:#263238"></path><path d="M310.22,178.6a77.93,77.93,0,0,1-19.69,38.75,81.89,81.89,0,0,1-26.81,19.11c-.39.17-.78.35-1.18.51l4.94-46.18a54,54,0,0,0,19.91-.22A43.65,43.65,0,0,0,310.22,178.6Z" style="fill:#263238"></path><path d="M129.89,241.56,121.14,244a17.48,17.48,0,1,0,9.29,33.7l8.76-2.42a17.48,17.48,0,1,0-9.3-33.69Z" style="fill:#263238"></path><path d="M129.89,241.56,121.14,244a17.48,17.48,0,1,0,9.29,33.7l8.76-2.42a17.48,17.48,0,1,0-9.3-33.69Z" style="opacity:0.6000000000000001"></path><path d="M142.63,256.17a17.48,17.48,0,1,1-21.5-12.2A17.48,17.48,0,0,1,142.63,256.17Z" style="fill:#263238;opacity:0.2"></path><path d="M135.56,258.12A10.15,10.15,0,1,1,123.08,251,10.15,10.15,0,0,1,135.56,258.12Z" style="opacity:0.6000000000000001"></path><path d="M214.24,218.29l-8.76,2.42a17.48,17.48,0,1,0,9.3,33.69l8.76-2.41a17.48,17.48,0,1,0-9.3-33.7Z" style="fill:#263238"></path><path d="M214.24,218.29l-8.76,2.42a17.48,17.48,0,1,0,9.3,33.69l8.76-2.41a17.48,17.48,0,1,0-9.3-33.7Z" style="opacity:0.6000000000000001"></path><circle cx="210.13" cy="237.56" r="17.48" transform="translate(-79.73 366.27) rotate(-72.45)" style="fill:#263238;opacity:0.2"></circle><circle cx="210.13" cy="237.56" r="10.15" style="opacity:0.6000000000000001"></circle><polygon points="238.4 222.97 230.71 229.28 62.62 275.64 55.47 249.69 212.09 206.5 238.4 222.97" style="fill:#263238"></polygon><path d="M172.07,229.92l-8.76,2.42A17.48,17.48,0,0,0,172.6,266l8.76-2.42a17.48,17.48,0,0,0-9.29-33.7Z" style="fill:#263238"></path><path d="M172.07,229.92l-8.76,2.42A17.48,17.48,0,0,0,172.6,266l8.76-2.42a17.48,17.48,0,0,0-9.29-33.7Z" style="fill:#fff;opacity:0.1"></path><circle cx="167.96" cy="249.19" r="17.48" transform="translate(-101.05 383.12) rotate(-82.49)" style="fill:#fff;opacity:0.1"></circle><circle cx="167.96" cy="249.19" r="10.15" transform="translate(-47.2 39.4) rotate(-11.74)" style="fill:#407BFF"></circle><path d="M87.72,253.19,79,255.6a17.48,17.48,0,1,0,9.3,33.7L97,286.88a17.47,17.47,0,1,0-9.29-33.69Z" style="fill:#263238"></path><path d="M87.72,253.19,79,255.6a17.48,17.48,0,1,0,9.3,33.7L97,286.88a17.47,17.47,0,1,0-9.29-33.69Z" style="fill:#fff;opacity:0.1"></path><circle cx="83.61" cy="272.45" r="17.48" transform="matrix(0.98, -0.19, 0.19, 0.98, -50.33, 20.9)" style="fill:#fff;opacity:0.1"></circle><circle cx="83.61" cy="272.45" r="10.15" transform="translate(-1.57 0.49) rotate(-0.33)" style="fill:#407BFF"></circle><polygon points="68.1 208 60.16 192.23 73.79 188.48 90.99 198.24 91.87 201.44 68.1 208" style="fill:#407BFF"></polygon><polygon points="68.1 208 60.16 192.23 73.79 188.48 90.99 198.24 91.87 201.44 68.1 208" style="opacity:0.30000000000000004"></polygon><rect x="25.09" y="206.37" width="57.11" height="3.99" transform="translate(-53.47 21.76) rotate(-15.42)" style="fill:#407BFF"></rect><rect x="25.09" y="206.37" width="57.11" height="3.99" transform="translate(-53.47 21.76) rotate(-15.42)" style="opacity:0.30000000000000004"></rect><path d="M238.23,211.63l3.53,12.82-55.25,15.24a17.11,17.11,0,1,0-33,9.1L102.16,263a17.11,17.11,0,1,0-33,9.1l-10.71,3-5-18.14L53,208.25l62.84-17.33s5-1.93,16.46-2.18c14.66-.51,40.14,1.72,79.45,13.93C219.92,205.15,228.82,208.14,238.23,211.63Z" style="fill:#407BFF"></path><path d="M168.59,218.49a25.21,25.21,0,0,0-17.59,31l2.53-.7a17.11,17.11,0,1,1,33-9.1l13-3.58A25.2,25.2,0,0,0,168.59,218.49Z" style="opacity:0.2"></path><path d="M84.25,241.76a25.22,25.22,0,0,0-17.6,31l2.53-.7a17.11,17.11,0,1,1,33-9.1l13-3.58A25.17,25.17,0,0,0,84.25,241.76Z" style="opacity:0.2"></path><path d="M43.29,225.61l43.66-12a41.85,41.85,0,0,1,22.37,0l50,12.78-6.12,8.75L112.85,226a53.55,53.55,0,0,0-25.93.65L51,236.5S41.8,235.67,43.29,225.61Z" style="fill:#407BFF"></path><path d="M43.29,225.61l43.66-12a41.85,41.85,0,0,1,22.37,0l50,12.78-6.12,8.75L112.85,226a53.55,53.55,0,0,0-25.93.65L51,236.5S41.8,235.67,43.29,225.61Z" style="opacity:0.2"></path><polygon points="246.83 209.3 192.81 224.2 196.34 236.98 246.39 223.18 248.69 216.08 246.83 209.3" style="fill:#407BFF"></polygon><polygon points="246.83 209.3 192.81 224.2 196.34 236.98 246.39 223.18 248.69 216.08 246.83 209.3" style="opacity:0.2"></polygon><rect x="215.4" y="218.78" width="7.36" height="3.32" transform="translate(-50.73 66.19) rotate(-15.42)" style="fill:#fff;opacity:0.4"></rect><rect x="239.52" y="212.13" width="7.36" height="3.32" transform="translate(-48.09 72.36) rotate(-15.42)" style="fill:#fff;opacity:0.4"></rect><polygon points="25.93 219.63 17.99 203.87 31.61 200.11 48.81 209.87 49.7 213.07 25.93 219.63" style="fill:#407BFF"></polygon><path d="M246.83,209.26l1.88,6.83-2.31,7.08-44.28,12.22,4.15-7.32-2-7.09-9.87,2.73s-20-10.92-60.36-21.39C93.91,191.89,53,208.25,53,208.25l-.32,2.45-3.38.93.4,1.43L26,219.62l-8-15.77,13.67-3.77,14.52,8.25L65.56,203l-5.41-10.76,13.66-3.77,16.6,9.49,25.47-7s5-1.93,16.46-2.18c14.66-.51,40.14,1.72,79.45,13.93,8.13,2.48,17,5.47,26.44,9Z" style="opacity:0.1"></path><path d="M211.79,202.67l-6.07,1.68-10.31-3.15-9.53,2.63,1.54,5.57-15.35,4.23c-46.42-19-81.14-13.47-81.14-13.47l41.41-11.42C147,188.23,172.48,190.46,211.79,202.67Z" style="fill:#fff;opacity:0.6000000000000001"></path><g style="clip-path:url(#freepik--clip-path--inject-1)"><g id="freepik--group--inject-1"><path d="M152.37,176.53s4.88,10.08-1.92,14.16c0,0-14.92,3.22-15.07-7.46S152.37,176.53,152.37,176.53Z" style="fill:#fff"></path><path d="M150.2,194.28S158,199.6,160.37,200c1.35.24,8.55.14,8.55.14l.46,4.29s-8.65.76-11.7.3-11.88-5-11.88-5Z" style="fill:#ebb376"></path><path d="M139.31,189.4a21.41,21.41,0,0,1,13,5.9l-3.29,6.48-9.14-.81Z" style="fill:#263238"></path><path d="M139.91,201l2,.18,5.41.48,1.73.15,3.29-6.48a21.41,21.41,0,0,0-13-5.9Z" style="opacity:0.2;isolation:isolate"></path><path d="M141.91,201.15l5.41.48a19.81,19.81,0,0,0-4.34-5.55Z" style="opacity:0.2;isolation:isolate"></path><path d="M131.36,192.09c-3.51,2.7-4.74,5.79-5.92,8.84A184.4,184.4,0,0,1,144,204.47a18.71,18.71,0,0,0-2.14-13.8A10.68,10.68,0,0,0,131.36,192.09Z" style="fill:#263238"></path><path d="M140.51,194.8a8.78,8.78,0,0,1-.18-1.17,7.32,7.32,0,0,1,3.28-6.75s-8.21-5.71-7.65-.82a7.2,7.2,0,0,1-.05,2.16,4,4,0,0,1-.53,1.41,3.44,3.44,0,0,1-2.46,1.61C134.33,197.65,140.51,194.8,140.51,194.8Z" style="fill:#ebb376"></path><path d="M135.38,189.63a9.52,9.52,0,0,0,5,4,7.32,7.32,0,0,1,3.28-6.75s-8.21-5.71-7.65-.82a7.2,7.2,0,0,1-.05,2.16A4,4,0,0,1,135.38,189.63Z" style="opacity:0.2;isolation:isolate"></path><path d="M148.53,176.8a5.22,5.22,0,0,1,.27,5.69c-1.81,2.94-4.66-4.61-4.66-4.61Z" style="fill:#263238"></path><path d="M134.46,180.55c.32,4.59.24,7.28,2.85,9.62,3.92,3.53,10.28,1.43,11.51-3.15,1.12-4.12.39-10.92-4.66-12.74S134.13,176,134.46,180.55Z" style="fill:#ebb376"></path><path d="M143.78,183.2c0,.4.16.75.43.76s.5-.29.53-.7-.16-.74-.43-.76S143.81,182.79,143.78,183.2Z" style="fill:#263238"></path><path d="M147.2,183.19c0,.4.16.75.43.76s.5-.29.53-.69-.16-.75-.43-.77S147.23,182.78,147.2,183.19Z" style="fill:#263238"></path><path d="M144.3,180.21a.35.35,0,0,0,.08-.13.25.25,0,0,0-.22-.26,2.34,2.34,0,0,0-2,.79.24.24,0,0,0,0,.33h0a.26.26,0,0,0,.34,0h0a1.87,1.87,0,0,1,1.62-.59A.27.27,0,0,0,144.3,180.21Z" style="fill:#263238"></path><path d="M149.14,180.89a.27.27,0,0,0,.14-.07.24.24,0,0,0,0-.33,2.33,2.33,0,0,0-2.1-.56.23.23,0,0,0-.16.29h0a.25.25,0,0,0,.29.17h0a1.84,1.84,0,0,1,1.67.48A.25.25,0,0,0,149.14,180.89Z" style="fill:#263238"></path><path d="M146.16,184.22l1.11,1s-.34.45-1.47.5Z" style="fill:#d58745"></path><path d="M146.23,186.72a13.62,13.62,0,0,0-.94,1.79l-.35-.09c-1.56-.42-2.15-1.13-2.32-1.78a2.07,2.07,0,0,1,0-1,2.05,2.05,0,0,1,.19-.53,7.83,7.83,0,0,0,2.9,1.45Z" style="fill:#263238"></path><path d="M145.7,186.57l-.29.52c-1.47-.4-2.46-.87-2.8-1.44a2.05,2.05,0,0,1,.19-.53A7.83,7.83,0,0,0,145.7,186.57Z" style="fill:#fff"></path><path d="M144.94,188.42c-1.56-.42-2.15-1.13-2.32-1.78a5.19,5.19,0,0,1,1.64.8A2,2,0,0,1,144.94,188.42Z" style="fill:#de5753"></path><path d="M147.18,173.48c1.22-.31,3,2,2.08,3.83a3.15,3.15,0,0,1-3,1.68l.57-.43a6.51,6.51,0,0,1-3.54.22,1.2,1.2,0,0,0-1.75.77s-.7.18-.78-.81a4.94,4.94,0,0,0-.93,2.87c-.08,1.88-1.19,2.61-2.47,2.06-.85-.37-.55,3.74-1.59,4.48s-1.78-.8-1.78-.8a2.62,2.62,0,0,1-2.87-1.6s1.29,0,1.12-1.9c0,0-1.62-1.41,0-4.32,0,0-1-1.15,0-3.5a3.86,3.86,0,0,1,2.75-2.56s.31-1.17,3-1.9,3.79.22,3.79.22a4.29,4.29,0,0,1,2.67,0A6.21,6.21,0,0,1,147.18,173.48Z" style="fill:#263238"></path><path d="M138.23,183.7s-.84-2.65-2.23-2-1.54,4.94.41,5.12S139,185.15,138.23,183.7Z" style="fill:#ebb376"></path><path d="M151.57,202.86c-2.42-.18-10.69-4.69-10.69-4.69l-3.18,4.88c5.33,1.11,11,2.53,16.94,4.36,3.17-.44,6.34-1,6.34-1l-.89-4.23S152.94,203,151.57,202.86Z" style="fill:#ebb376"></path><path d="M131.22,193.77c4.64-2.19,13,5.9,13,5.9L141,206.15s-9.83-1.21-12.15-5.59C128,199,128.36,195.12,131.22,193.77Z" style="fill:#263238"></path><path d="M131.22,193.77c-2.86,1.35-3.25,5.2-2.41,6.79a4.91,4.91,0,0,0,.69,1c3.95.64,8.15,1.46,12.54,2.48l2.21-4.34S135.86,191.58,131.22,193.77Z" style="opacity:0.2;isolation:isolate"></path><path d="M137,178.12c1.24-2.45,15.34-1.59,15.34-1.59s-2.3-5.75-10.53-6.54c-8-.76-12.05,4.1-12.42,8.59s2.13,9.76,2.13,9.76a25.38,25.38,0,0,0,18.53,4.74l.37-2.39a20.6,20.6,0,0,1-9.09-1.32A8.28,8.28,0,0,1,137,178.12Z" style="fill:#407BFF"></path></g><path d="M172.07,213.63l15.35-4.23-1.54-5.57,6.07-1.67-17.15-5.74-21.63,6.07-1,4.19A200.52,200.52,0,0,1,172.07,213.63Z" style="fill:#263238"></path><path d="M172.07,213.63l15.35-4.23-1.54-5.57,6.07-1.67-17.15-5.74-21.63,6.07-1,4.19A200.52,200.52,0,0,1,172.07,213.63Z" style="fill:#fff;opacity:0.4"></path></g><path d="M205.09,288.22c11.53-2.33,16.33,23.58.2,29.95s-25.24-2-21.68-9.5,8.66-5.06,12.44-10.22S196.89,289.88,205.09,288.22Z" style="fill:#407BFF"></path><path d="M223.57,308.29c5.28-1.34,7.46,15.14,1,14.18S216.46,310.09,223.57,308.29Z" style="fill:#407BFF"></path><path d="M241,314.1c3,2.63-4.14,7.12-5.58,2.52S236.89,310.54,241,314.1Z" style="fill:#407BFF"></path><path d="M205.09,288.22c11.53-2.33,16.33,23.58.2,29.95s-25.24-2-21.68-9.5,8.66-5.06,12.44-10.22S196.89,289.88,205.09,288.22Z" style="fill:#fff;opacity:0.6000000000000001"></path><path d="M223.57,308.29c5.28-1.34,7.46,15.14,1,14.18S216.46,310.09,223.57,308.29Z" style="fill:#fff;opacity:0.5"></path><path d="M241,314.1c3,2.63-4.14,7.12-5.58,2.52S236.89,310.54,241,314.1Z" style="fill:#fff;opacity:0.4"></path></g><g id="freepik--Character--inject-1"><g id="freepik--group--inject-1"><path d="M394.39,399.89C392.57,405.25,373.2,416,373.2,416l-11.42-13.56s9.1-4.54,11.39-8.69c1.11-2-2.63-10.29-6.77-18.35-4.46-8.62-9.39-16.95-9.39-16.95l8.61-5.28s11.65,15.77,20.14,29.1C391,390.5,395.07,397.84,394.39,399.89Z" style="fill:#ebb376"></path><path d="M394.39,399.89C392.57,405.25,373.2,416,373.2,416l-11.42-13.56s9.1-4.54,11.39-8.69c1.11-2-2.63-10.29-6.77-18.35a88.7,88.7,0,0,1,19.36,6.87C391,390.5,395.07,397.84,394.39,399.89Z" style="opacity:0.2;isolation:isolate"></path><path d="M254.37,372.55s-13.08,19.81-18.25,23.08c-2.93,1.86-19.82,8.47-19.82,8.47l3,10.45s20.89-6.47,27.57-10.45,23-23,23-23Z" style="fill:#ebb376"></path><path d="M275.14,350.79A53.85,53.85,0,0,0,250.36,377l13.84,12,20.56-10.59Z" style="fill:#407BFF"></path><path d="M284.76,378.36l-4.51,2.32-12.15,6.26-3.91,2-13.83-12a53.91,53.91,0,0,1,24.78-26.17Z" style="opacity:0.2;isolation:isolate"></path><path d="M280.25,380.68l-12.15,6.26c.44-8.38,4.85-17.07,4.85-17.07Z" style="opacity:0.2;isolation:isolate"></path><path d="M216.3,404.1s-5.74-5.49-7.1-6-14.2,3-15.29,5.21,7.4,11.07,11.87,11.86S219.67,413,219.67,413Z" style="fill:#ebb376"></path><path d="M366,354.33,357.57,361a.67.67,0,0,1-1-.07h0l-5.69-6.33a1.7,1.7,0,0,1,.26-2.36c3-2.27,4.5-3.21,8.22-6.11,2.27-1.79,6.59-5.55,10.08-7.51s5.34,1.55,4,2.68c-3.08,2.72-5.81,8.27-6.6,11.59A2.71,2.71,0,0,1,366,354.33Z" style="fill:#263238"></path><path d="M369.3,350.2a1.2,1.2,0,0,1,1,.81.83.83,0,0,1,0,.81c-.64,1.08-3.9,1.32-4.28,1.34a.24.24,0,0,1-.2-.12.19.19,0,0,1,0-.24,12.05,12.05,0,0,1,1.79-1.85A2.56,2.56,0,0,1,369.3,350.2Zm.57,1.36a.41.41,0,0,0,0-.4.81.81,0,0,0-.61-.52c-.63-.06-1.65.67-2.78,2,1.31-.14,3-.5,3.39-1.08Z" style="fill:#407BFF"></path><path d="M366,352.69c1.09-.15,3.45.53,3.93,1.48a.85.85,0,0,1-.22,1,1.17,1.17,0,0,1-.94.35c-1.32-.13-2.88-2.45-2.93-2.51a.24.24,0,0,1,0-.22.12.12,0,0,1,.08,0A.14.14,0,0,1,366,352.69Zm3.38,2.16c.22-.22.19-.4.13-.51-.36-.61-2-1.22-3.08-1.26.54.72,1.57,1.91,2.37,2a.64.64,0,0,0,.5-.13Z" style="fill:#407BFF"></path><path d="M385.61,414.55s22-2.8,25.64-7.11-9.48-54.07-9.48-54.07l-9.94,1.73s5.63,35.76,2,38.77S380,397.75,380,397.75Z" style="fill:#ebb376"></path><path d="M338.11,381.13s17.74.42,27.44,4.59h15.07a44.81,44.81,0,0,1,11.21,28.91s-42.62,8.92-78.29-.78Z" style="fill:#263238"></path><path d="M344.9,403.78C336.49,419.91,316,418.34,316,418.34c-1.55-.64-3.07-1.29-4.52-2A100.49,100.49,0,0,1,299,409.63c-35.59-22.59-28.53-53.45-28.53-53.45s10.22-11,25.82-6.68c24.65,6.75,23.28,29.73,53.61,31C349.85,380.54,351.36,391.38,344.9,403.78Z" style="fill:#407BFF"></path><path d="M277.49,364.53a21.75,21.75,0,0,0-.7-2.91A19.57,19.57,0,0,0,274.6,357a19,19,0,0,0-11.89-8s13.73-21.14,17.08-9.2a18.28,18.28,0,0,0,2.16,5,10,10,0,0,0,2.58,2.79A8.66,8.66,0,0,0,291.8,349C294.62,365.3,277.49,364.53,277.49,364.53Z" style="fill:#ebb376"></path><path d="M284.53,347.59c-1.06,5.13-3.32,10.4-7.74,14A19.57,19.57,0,0,0,274.6,357a19,19,0,0,0-11.89-8s13.73-21.14,17.08-9.2a18.28,18.28,0,0,0,2.16,5A10,10,0,0,0,284.53,347.59Z" style="opacity:0.2;isolation:isolate"></path><path d="M401.66,354.6l-10.26,3.09a.67.67,0,0,1-.86-.42h0l-2.94-8a1.69,1.69,0,0,1,1.11-2.1c3.6-1,5.36-1.32,9.89-2.65,2.77-.82,8.17-2.72,12.14-3.25s4.39,3.4,2.76,4c-3.87,1.38-8.45,5.53-10.42,8.33A2.69,2.69,0,0,1,401.66,354.6Z" style="fill:#263238"></path><path d="M406.28,352a1.17,1.17,0,0,1,.62,1.11.82.82,0,0,1-.31.76c-1,.77-4.11-.22-4.46-.33a.26.26,0,0,1-.15-.2.2.2,0,0,1,.11-.21,12,12,0,0,1,2.34-1.06A2.57,2.57,0,0,1,406.28,352Zm0,1.48a.41.41,0,0,0,.15-.37.84.84,0,0,0-.38-.72c-.56-.29-1.78,0-3.31.84,1.26.35,3,.66,3.54.25Z" style="fill:#407BFF"></path><path d="M402.25,353.07c1.07.27,3,1.77,3.1,2.83a.85.85,0,0,1-.58.88,1.17,1.17,0,0,1-1,0c-1.18-.62-1.77-3.34-1.79-3.42a.24.24,0,0,1,.06-.2.16.16,0,0,1,.1,0A.15.15,0,0,1,402.25,353.07Zm2.34,3.26c.29-.12.33-.3.31-.43-.1-.69-1.4-1.87-2.39-2.3.23.87.75,2.35,1.46,2.72a.63.63,0,0,0,.52.05Z" style="fill:#407BFF"></path><path d="M252.18,318.13s-5.23,6.91-.64,14.33,11.73-11.63,11.73-11.63Z" style="fill:#263238"></path><path d="M287.68,327.5c-.78,11.56-.58,18.35-7.13,24.26-9.87,8.92-25.91,3.66-29-7.88-2.85-10.37-1.06-27.51,11.66-32.12S288.47,316,287.68,327.5Z" style="fill:#ebb376"></path><path d="M264.19,334.22c.08,1-.4,1.89-1.07,1.93s-1.26-.74-1.34-1.75.4-1.88,1.07-1.94S264.11,333.2,264.19,334.22Z" style="fill:#263238"></path><path d="M255.57,334.22c.08,1-.39,1.89-1.07,1.93s-1.26-.74-1.34-1.75.4-1.88,1.07-1.94S255.49,333.2,255.57,334.22Z" style="fill:#263238"></path><path d="M262.86,326.69a.68.68,0,0,1-.18-.32.61.61,0,0,1,.55-.65,5.89,5.89,0,0,1,5.11,2,.6.6,0,0,1-.1.84h0a.63.63,0,0,1-.85-.1h0a4.68,4.68,0,0,0-4.1-1.48A.62.62,0,0,1,262.86,326.69Z" style="fill:#263238"></path><path d="M250.67,328.43a.67.67,0,0,1-.34-.16.62.62,0,0,1,.06-.85,5.92,5.92,0,0,1,5.29-1.42.6.6,0,0,1,.41.74h0a.63.63,0,0,1-.74.42h0a4.69,4.69,0,0,0-4.18,1.21A.63.63,0,0,1,250.67,328.43Z" style="fill:#263238"></path><path d="M258.21,336.81l-2.79,2.53s.86,1.14,3.71,1.24Z" style="fill:#d58745"></path><path d="M258.05,343.1a36,36,0,0,1,2.38,4.51l.87-.22c3.93-1.06,5.41-2.85,5.85-4.51a5.22,5.22,0,0,0,0-2.49,5.06,5.06,0,0,0-.48-1.34c-1.75,1.81-5.34,3.08-7.29,3.67C258.57,343,258.05,343.1,258.05,343.1Z" style="fill:#263238"></path><path d="M259.38,342.72l.74,1.31c3.7-1,6.18-2.2,7-3.64a5.06,5.06,0,0,0-.48-1.34C264.92,340.86,261.33,342.13,259.38,342.72Z" style="fill:#fff"></path><path d="M261.3,347.39c3.93-1.06,5.41-2.85,5.85-4.51a12.93,12.93,0,0,0-4.13,2A4.87,4.87,0,0,0,261.3,347.39Z" style="fill:#de5753"></path><path d="M255.58,309.75c-3.07-.77-7.48,4.94-5.22,9.67s7.69,4.21,7.69,4.21l-1.45-1.08s5.28,1.83,8.94.54S270,325,270,325s1.75.44,1.95-2a12.39,12.39,0,0,1,2.36,7.22c.22,4.73,3,6.57,6.25,5.17,2.14-.93,1.41,9.41,4,11.29,2.43,1.74,4.48-2,4.48-2s4.31,1.18,7.21-4.05c0,0-3.23,0-2.82-4.78,0,0,4.07-3.56,0-10.88,0,0,2.56-2.91,0-8.83s-7-6.44-7-6.44-.77-2.93-7.51-4.77-9.55.58-9.55.58-2.48-1.12-6.72,0A15.63,15.63,0,0,0,255.58,309.75Z" style="fill:#263238"></path><path d="M278.18,335.46s2.12-6.68,5.62-5,3.91,12.44-1,12.92S276.3,339.12,278.18,335.46Z" style="fill:#ebb376"></path><path d="M201.88,412.73h-1.7a3.26,3.26,0,0,0,0,6.52h1.7a3.26,3.26,0,0,0,0-6.52Z" style="fill:#263238"></path><path d="M203.45,416a3.27,3.27,0,1,1-3.27-3.26A3.26,3.26,0,0,1,203.45,416Z" style="opacity:0.2"></path><path d="M202.08,416a1.9,1.9,0,1,1-1.9-1.9A1.9,1.9,0,0,1,202.08,416Z" style="fill:#263238"></path><path d="M218.22,412.73h-1.7a3.26,3.26,0,0,0,0,6.52h1.7a3.26,3.26,0,1,0,0-6.52Z" style="fill:#263238"></path><path d="M219.78,416a3.26,3.26,0,1,1-3.26-3.26A3.26,3.26,0,0,1,219.78,416Z" style="opacity:0.2"></path><circle cx="216.52" cy="415.99" r="1.89" style="fill:#263238"></circle><polygon points="222.33 414.77 220.63 415.52 188.08 415.52 188.08 410.5 218.41 410.5 222.33 414.77" style="fill:#263238"></polygon><path d="M210.05,412.73h-1.7a3.26,3.26,0,0,0,0,6.52h1.7a3.26,3.26,0,0,0,0-6.52Z" style="fill:#263238"></path><path d="M210.05,412.73h-1.7a3.26,3.26,0,0,0,0,6.52h1.7a3.26,3.26,0,0,0,0-6.52Z" style="fill:#fff;opacity:0.1"></path><path d="M211.62,416a3.27,3.27,0,1,1-3.27-3.26A3.27,3.27,0,0,1,211.62,416Z" style="fill:#fff;opacity:0.1"></path><circle cx="208.35" cy="415.99" r="1.89" style="fill:#407BFF"></circle><path d="M193.71,412.73H192a3.26,3.26,0,1,0,0,6.52h1.69a3.26,3.26,0,1,0,0-6.52Z" style="fill:#263238"></path><path d="M193.71,412.73H192a3.26,3.26,0,1,0,0,6.52h1.69a3.26,3.26,0,1,0,0-6.52Z" style="fill:#fff;opacity:0.1"></path><path d="M195.28,416a3.27,3.27,0,1,1-3.26-3.26A3.26,3.26,0,0,1,195.28,416Z" style="fill:#fff;opacity:0.1"></path><path d="M193.91,416a1.9,1.9,0,1,1-1.89-1.9A1.89,1.89,0,0,1,193.91,416Z" style="fill:#407BFF"></path><polygon points="192.43 403.62 191.78 400.39 194.42 400.39 197.03 403 197.03 403.62 192.43 403.62" style="fill:#407BFF"></polygon><polygon points="192.43 403.62 191.78 400.39 194.42 400.39 197.03 403 197.03 403.62 192.43 403.62" style="opacity:0.30000000000000004"></polygon><rect x="184.47" y="402.6" width="10.66" height="0.75" style="fill:#407BFF"></rect><rect x="184.47" y="402.6" width="10.66" height="0.75" style="opacity:0.30000000000000004"></rect><path d="M222.86,412.72v2.48h-10.7a3.19,3.19,0,1,0-6.38,0h-9.95a3.2,3.2,0,1,0-6.39,0h-2.07v-3.51l2.33-8.77h12.17a10.12,10.12,0,0,1,3.07.42c2.67.64,7.14,2.3,13.61,6.45C219.89,410.64,221.34,411.62,222.86,412.72Z" style="fill:#407BFF"></path><path d="M210,410.5a4.69,4.69,0,0,0-4.7,4.7h.49a3.19,3.19,0,1,1,6.38,0h2.52A4.7,4.7,0,0,0,210,410.5Z" style="opacity:0.2"></path><path d="M193.66,410.5a4.7,4.7,0,0,0-4.71,4.7h.49a3.2,3.2,0,1,1,6.39,0h2.51A4.69,4.69,0,0,0,193.66,410.5Z" style="opacity:0.2"></path><path d="M187.09,405.56h8.45a7.84,7.84,0,0,1,4,1.11l8.36,4.78-1.54,1.28-6.8-3.66a10,10,0,0,0-4.7-1.17h-7A1.63,1.63,0,0,1,187.09,405.56Z" style="fill:#407BFF"></path><path d="M187.09,405.56h8.45a7.84,7.84,0,0,1,4,1.11l8.36,4.78-1.54,1.28-6.8-3.66a10,10,0,0,0-4.7-1.17h-7A1.63,1.63,0,0,1,187.09,405.56Z" style="opacity:0.2"></path><polygon points="224.53 412.73 214.07 412.73 214.07 415.2 223.76 415.2 224.53 414.04 224.53 412.73" style="fill:#407BFF"></polygon><polygon points="224.53 412.73 214.07 412.73 214.07 415.2 223.76 415.2 224.53 414.04 224.53 412.73" style="opacity:0.2"></polygon><rect x="218.29" y="413.04" width="1.37" height="0.62" style="fill:#fff;opacity:0.4"></rect><rect x="222.97" y="413.04" width="1.37" height="0.62" style="fill:#fff;opacity:0.4"></rect><polygon points="184.26 403.62 183.61 400.39 186.25 400.39 188.86 403 188.86 403.62 184.26 403.62" style="fill:#407BFF"></polygon><path d="M224.53,412.72V414l-.77,1.16h-8.57l1.11-1.11v-1.37h-1.91a54.17,54.17,0,0,0-9.81-6.85c-6.71-3.87-14.88-2.95-14.88-2.95l-.18.42h-.65v.28h-4.61l-.65-3.24h2.65l2.2,2.21h3.76l-.44-2.21h2.64l2.52,2.54h4.93a10.12,10.12,0,0,1,3.07.42c2.67.64,7.14,2.3,13.61,6.45,1.34.85,2.79,1.83,4.31,2.93Z" style="opacity:0.1"></path><path d="M218.55,409.79h-1.18l-1.69-1.07h-1.85v1.07h-3c-7.41-5.73-13.94-6.45-13.94-6.45h8C207.61,404,212.08,405.64,218.55,409.79Z" style="fill:#fff;opacity:0.4"></path><path d="M311.52,416.38A100.49,100.49,0,0,1,299,409.63l11-9.25S312.2,409.81,311.52,416.38Z" style="opacity:0.2;isolation:isolate"></path><path d="M249.25,400.37s-4.4,3.4-8,1.84c-2.74-1.21-4.52-5.24-10.59-4.66a5.83,5.83,0,0,1,5.41-1c4.52,1.45,5.44,6.28,11.79,1.49Z" style="fill:#263238"></path><path d="M249.25,400.37s-4.4,3.4-8,1.84c-2.74-1.21-4.52-5.24-10.59-4.66a5.83,5.83,0,0,1,5.41-1c4.52,1.45,5.44,6.28,11.79,1.49Z" style="fill:#fff;opacity:0.1"></path><path d="M250.69,410.63l-4.51-18.21a6.05,6.05,0,0,1,4.42-7.34h0a6.07,6.07,0,0,1,7.34,4.43l4.45,18Z" style="fill:#263238"></path><path d="M250.69,410.63l-4.51-18.21a6.05,6.05,0,0,1,4.42-7.34h0a6.07,6.07,0,0,1,7.34,4.43l4.45,18Z" style="fill:#fff;opacity:0.2"></path><path d="M248.34,394c.28,1.14-.1,2.22-.85,2.41s-1.59-.59-1.87-1.74.09-2.23.84-2.41S248.05,392.83,248.34,394Z" style="fill:#407BFF"></path><path d="M259.94,403.63s5.48.95,7.91-2.1c1.86-2.34,1.55-6.74,7.19-9a5.81,5.81,0,0,0-5.26,1.61c-3.32,3.4-1.88,8.1-9.73,6.82Z" style="fill:#263238"></path><path d="M256.06,392.9s7.81-2.59,7.16-7.19-5.6-8.92-2.23-11.86c0,0-1.49,1.14,1.45,5.85s8.06,12.36-4.56,16.08C257.88,395.78,255.92,395.91,256.06,392.9Z" style="fill:#263238"></path><path d="M259.94,403.63s5.48.95,7.91-2.1c1.86-2.34,1.55-6.74,7.19-9a5.81,5.81,0,0,0-5.26,1.61c-3.32,3.4-1.88,8.1-9.73,6.82Z" style="fill:#fff;opacity:0.30000000000000004"></path><path d="M256.06,392.9s7.81-2.59,7.16-7.19-5.6-8.92-2.23-11.86c0,0-1.49,1.14,1.45,5.85s8.06,12.36-4.56,16.08C257.88,395.78,255.92,395.91,256.06,392.9Z" style="fill:#fff;opacity:0.30000000000000004"></path><path d="M313.54,391.72s-5.9,21.54-9.78,25.42-38.32,1.23-38.32,1.23-10.6,1.46-11.24,0-3.88-12.28-2.16-12.57,10.86-3.1,13.4-1.8a12,12,0,0,1,4,3.44s21.55,1,23.93-1.64S296.23,389,296.23,389Z" style="fill:#ebb376"></path><path d="M301.24,360.49c6.06-3.05,14.37.45,17.81,9.38S313.54,399,313.54,399l-18.62-3.2S288,367.18,301.24,360.49Z" style="fill:#407BFF"></path><path d="M301.24,360.49c6.06-3.05,14.37.45,17.81,9.38S313.54,399,313.54,399l-18.62-3.2S288,367.18,301.24,360.49Z" style="opacity:0.2;isolation:isolate"></path></g></g></svg>